# xmcd
#
# Track frame offsets:
#	183
#	17178
#	32030
#	49135
#	62185
#	72833
#	89485
#	103775
#	119108
#	132723
#	148430
#	160778
#	172788
#	183953
#	202280
#	215073
#	230325
#	241700
#	255425
#	267958
#	277605
#	290450
#	302560
#	320210
#	331630
#
# Disc length: 4623 seconds
# Revision: 9
# Processed by: cddbd v1.5.2PL0 Copyright (c) Steve Scherf et al.
# Submitted via: dBpowerAMP V12.0
#
DISCID=7e120d19
DTITLE=Olivia Newton-John - Olivia Newton-John 48 Original Tracks 1971-1975 [Uk Edition • Disc 1]
DYEAR=1994
DGENRE=Country
TTITLE0=Love Song
TTITLE1=Banks Of The Ohio
TTITLE2=Me And Bobby McGee
TTITLE3=If Not For You
TTITLE4=Help Me Make It Through The Night
TTITLE5=If You Could Read My Mind
TTITLE6=In A Station
TTITLE7=Where Are You Going To My Love
TTITLE8=Lullaby
TTITLE9=No Regrets
TTITLE10=If I Gotta Leave
TTITLE11=Would You Follow Me
TTITLE12=If
TTITLE13=It's So Hard To Say Goodbye
TTITLE14=Winterwood
TTITLE15=What Is Life
TTITLE16=Changes
TTITLE17=Everything I Own
TTITLE18=I'm A Small And Lonely Light
TTITLE19=Just A Little Too Much
TTITLE20=Living In Harmony
TTITLE21=Why Don't You Write Me
TTITLE22=Angel Of The Morning
TTITLE23=Mary Skeffington
TTITLE24=If We Only Have Love
EXTD=
EXTT0=
EXTT1=
EXTT2=
EXTT3=
EXTT4=
EXTT5=
EXTT6=
EXTT7=
EXTT8=
EXTT9=
EXTT10=
EXTT11=
EXTT12=
EXTT13=
EXTT14=
EXTT15=
EXTT16=
EXTT17=
EXTT18=
EXTT19=
EXTT20=
EXTT21=
EXTT22=
EXTT23=
EXTT24=
PLAYORDER=
